<?xml version="1.0"?>
<svg id="_Слой_1" data-name="Слой 1" xmlns="http://www.w3.org/2000/svg" viewBox="0 0 150 150">
  <defs>
    
  </defs>
  <path class="cls-2" d="m131.11,148.19h-.38c-8.1,0-14.67-6.57-14.67-14.67h0c0-8.1,6.57-14.67,14.67-14.67h.38c8.1,0,14.67,6.57,14.67,14.67h0c0,8.1-6.57,14.67-14.67,14.67Z"></path>
  <g>
    <path class="cls-1" d="m58.68,79.7l46.24,65.34c.54.77,0,1.83-.95,1.83h-27.94c-.55,0-1.07-.27-1.37-.73l-32.62-48.33c-.58-.86-1.8-.98-2.54-.25l-12.51,12.37c-.31.31-.49.74-.49,1.18v34.1c0,.92-.74,1.66-1.66,1.66H5.04c-.92,0-1.66-.74-1.66-1.66v-39.83c0-.43.16-.84.46-1.15L70.38,34.54c.31-.33.75-.52,1.2-.52h27.72c1.03,0,1.55,1.25.82,1.98l-41.27,41.57c-.57.57-.64,1.47-.18,2.13Z"></path>
    <path class="cls-1" d="m5.04,34.02h19.6c.92,0,1.66.74,1.66,1.66v19.56c0,.43-.17.84-.46,1.15l-20.46,21.36c-.72.75-2,.24-2-.8v-41.26c0-.92.74-1.66,1.66-1.66Z"></path>
  </g>
</svg>