<?xml version="1.0"?>
<svg id="_Слой_1" data-name="Слой 1" xmlns="http://www.w3.org/2000/svg" viewBox="0 0 654.09 137.43">
  <defs>
    
  </defs>
  <path fill="#EF1C24" d="m341.09,102.15h-.22c-4.79,0-8.67-3.88-8.67-8.67h0c0-4.79,3.88-8.67,8.67-8.67h.22c4.79,0,8.67,3.88,8.67,8.67h0c0,4.79-3.88,8.67-8.67,8.67Z"></path>
  <g>
    <path fill="#444443" d="m67.33,61.68l27.32,38.61c.32.45,0,1.08-.56,1.08h-16.51c-.33,0-.63-.16-.81-.43l-19.27-28.55c-.34-.51-1.06-.58-1.5-.15l-7.39,7.31c-.19.18-.29.43-.29.7v20.15c0,.54-.44.98-.98.98h-11.7c-.54,0-.98-.44-.98-.98v-23.53c0-.25.1-.49.27-.68l39.31-41.18c.19-.2.44-.31.71-.31h16.38c.61,0,.92.74.49,1.17l-24.39,24.56c-.34.34-.38.87-.1,1.26Z"></path>
    <path fill="#444443" d="m35.64,34.69h11.58c.54,0,.98.44.98.98v11.55c0,.25-.1.5-.27.68l-12.09,12.62c-.43.45-1.18.14-1.18-.47v-24.38c0-.54.44-.98.98-.98Z"></path>
  </g>
  <path fill="#444443" d="m387.66,87.64c0-1.61-.8-2.87-2.39-3.8-1.59-.92-4.15-1.75-7.67-2.48-11.71-2.46-17.56-7.43-17.56-14.92,0-4.37,1.81-8.01,5.44-10.94,3.62-2.93,8.36-4.39,14.22-4.39,6.25,0,11.24,1.47,14.99,4.41,3.45,2.71,5.31,6.17,5.58,10.38.04.59-.41,1.09-1,1.09h-11.17c-.5,0-.93-.37-.99-.87-.16-1.49-.75-2.76-1.77-3.79-1.21-1.23-3.11-1.84-5.69-1.84-2.21,0-3.93.5-5.14,1.5-1.21,1-1.82,2.28-1.82,3.82,0,1.46.69,2.63,2.07,3.53,1.38.89,3.71,1.67,6.98,2.32,3.28.65,6.03,1.39,8.28,2.21,6.94,2.55,10.42,6.96,10.42,13.24,0,4.49-1.93,8.12-5.78,10.9-3.85,2.78-8.83,4.16-14.92,4.16-4.13,0-7.79-.74-10.99-2.21-3.2-1.47-5.71-3.49-7.53-6.05-1.59-2.24-2.49-4.64-2.69-7.2-.05-.59.4-1.1,1-1.1h10.52c.49,0,.92.35.98.83.27,1.93,1.1,3.44,2.51,4.54,1.61,1.24,3.76,1.87,6.46,1.87,2.52,0,4.42-.48,5.71-1.43,1.29-.96,1.93-2.21,1.93-3.75Z"></path>
  <path fill="#444443" d="m227.56,79.45v-26.53c0-.55.45-1,1-1h11.42c.55,0,1,.45,1,1v27.62c0,2.85.88,5.14,2.63,6.86,1.75,1.72,3.99,2.58,6.71,2.58s4.84-.88,6.56-2.63c1.72-1.75,2.58-4.03,2.58-6.81v-27.62c0-.55.45-1,1-1h11.42c.55,0,1,.45,1,1v26.53c0,6.76-2.14,12.26-6.41,16.5-4.27,4.24-9.66,6.36-16.15,6.36s-12.07-2.1-16.35-6.31c-4.27-4.21-6.41-9.72-6.41-16.55Z"></path>
  <path fill="#444443" d="m435.06,79.45v-26.53c0-.55.45-1,1-1h11.42c.55,0,1,.45,1,1v27.62c0,2.85.88,5.14,2.63,6.86,1.75,1.72,3.99,2.58,6.71,2.58s4.84-.88,6.56-2.63c1.72-1.75,2.58-4.03,2.58-6.81v-27.62c0-.55.45-1,1-1h11.42c.55,0,1,.45,1,1v26.53c0,6.76-2.14,12.26-6.41,16.5-4.27,4.24-9.66,6.36-16.15,6.36s-12.07-2.1-16.35-6.31c-4.27-4.21-6.41-9.72-6.41-16.55Z"></path>
  <path fill="#444443" d="m323.43,70.6v29.51c0,.55-.45,1-1,1h-11.32c-.55,0-1-.45-1-1v-27.72c0-2.85-.84-5.15-2.53-6.91-1.69-1.75-3.89-2.63-6.61-2.63s-4.95.88-6.71,2.63-2.63,4.06-2.63,6.91v27.72c0,.55-.45,1-1,1h-11.42c-.55,0-1-.45-1-1v-47.19c0-.55.45-1,1-1h10.32c.55,0,1,.45,1,1v3.47c3.71-3.71,8.51-5.56,14.41-5.56s10.2,1.79,13.52,5.37c3.31,3.58,4.97,8.38,4.97,14.41Z"></path>
  <path fill="#444443" d="m119.13,50.48h-.67c-14.44,0-26.15,11.71-26.15,26.15h0c0,14.44,11.71,26.15,26.15,26.15h.67c14.44,0,26.15-11.71,26.15-26.15h0c0-14.44-11.71-26.15-26.15-26.15Zm12.43,26.15c0,6.96-5.64,12.61-12.61,12.61h-.32c-6.96,0-12.61-5.64-12.61-12.61h0c0-6.96,5.64-12.61,12.61-12.61h.32c6.96,0,12.61,5.64,12.61,12.61h0Z"></path>
  <path fill="#444443" d="m193.31,53.28l-16.05,47.33c-.14.41-.52.68-.95.68h-13.77c-.43,0-.81-.27-.95-.68l-16.23-47.33c-.22-.65.26-1.32.95-1.32h12.2c.44,0,.82.28.95.7l10.3,32.95,10.3-32.95c.13-.42.52-.7.95-.7h11.35c.68,0,1.17.67.95,1.32Z"></path>
  <path fill="#444443" d="m537.65,35.66c0-.55-.45-1-1-1h-11.57c-.55,0-1,.45-1,1v17.49c-3.7-2-7.93-3.14-12.43-3.14h-.67c-14.44,0-26.15,11.71-26.15,26.15s11.71,26.15,26.15,26.15h.67c4.5,0,8.73-1.14,12.43-3.14v1.67c0,.55.45,1,1,1h11.57c.55,0,1-.45,1-1V35.66Zm-26.18,53.1h-.32c-6.96,0-12.61-5.64-12.61-12.61s5.64-12.61,12.61-12.61h.32c6.95,0,12.58,5.62,12.6,12.56v.09c-.02,6.94-5.66,12.56-12.6,12.56Z"></path>
  <path fill="#444443" d="m221.22,61.53h-9.04v24.01c0,1.25,1.01,2.26,2.27,2.26h6.77c.55,0,1,.45,1,1v11.48c0,.55-.45,1-1,1h-9.09c-7.42,0-13.43-6.01-13.43-13.43v-37.3c0-1.55.6-3.04,1.67-4.15l10.95-11.42c.31-.33.86-.1.86.35v16.06h9.04c.55,0,1,.45,1,1v8.14c0,.55-.45,1-1,1Z"></path>
  <path fill="#444443" d="m428.51,61.53h-9.04v24.01c0,1.25,1.01,2.26,2.27,2.26h6.77c.55,0,1,.45,1,1v11.48c0,.55-.45,1-1,1h-9.09c-7.42,0-13.43-6.01-13.43-13.43v-37.3c0-1.55.6-3.04,1.67-4.15l10.95-11.42c.31-.33.86-.1.86.35v16.06h9.04c.55,0,1,.45,1,1v8.14c0,.55-.45,1-1,1Z"></path>
  <g>
    <path fill="#444443" d="m551.18,48.53h-.17c-3.7,0-6.7-3-6.7-6.7h0c0-3.7,3-6.7,6.7-6.7h.17c3.7,0,6.7,3,6.7,6.7h0c0,3.7-3,6.7-6.7,6.7Z"></path>
    <rect fill="#444443" x="544.31" y="51.96" width="13.57" height="49.33" rx="1" ry="1"></rect>
  </g>
  <path fill="#444443" d="m590.25,50.48h-.67c-14.44,0-26.15,11.71-26.15,26.15h0c0,14.44,11.71,26.15,26.15,26.15h.67c14.44,0,26.15-11.71,26.15-26.15h0c0-14.44-11.71-26.15-26.15-26.15Zm12.43,26.15c0,6.96-5.64,12.61-12.61,12.61h-.32c-6.96,0-12.61-5.64-12.61-12.61h0c0-6.96,5.64-12.61,12.61-12.61h.32c6.96,0,12.61,5.64,12.61,12.61h0Z"></path>
</svg>